<svg width="313" height="313" viewBox="0 0 313 313" fill="none" xmlns="http://www.w3.org/2000/svg">
<path fill-rule="evenodd" clip-rule="evenodd" d="M273.875 140.85H258.225V78.25H54.775V140.85H39.125C34.8213 140.85 31.3 144.371 31.3 148.675V250.4C26.9963 250.4 23.475 253.921 23.475 258.225V273.875H7.825C3.52125 273.875 0 277.396 0 281.7V305.175C0 309.479 3.52125 313 7.825 313H305.175C309.479 313 313 309.479 313 305.175V281.7C313 277.396 309.479 273.875 305.175 273.875H289.525V258.225C289.525 253.921 286.004 250.4 281.7 250.4V148.675C281.7 144.371 278.179 140.85 273.875 140.85ZM70.425 250.4V201.885L86.075 211.666V273.875H78.25V258.225C78.25 253.921 74.7288 250.4 70.425 250.4ZM195.625 231.229L211.275 221.448V273.875H101.725V221.448L117.375 231.229V250.4C117.375 254.704 120.896 258.225 125.2 258.225H187.8C192.104 258.225 195.625 254.704 195.625 250.4V231.229ZM226.925 211.666L242.575 201.885V250.4C238.271 250.4 234.75 253.921 234.75 258.225V273.875H226.925V211.666ZM70.425 195.625V179.975H242.575V195.625H70.425ZM252.588 62.6H60.3245H60.2491L117.3 26.9963V7.825C117.3 3.52125 120.821 0 125.125 0H187.725C192.028 0 195.55 3.52125 195.55 7.825L195.537 26.9963L252.588 62.6ZM210.997 97.7242V160.276H211C211 161.778 209.847 163 208.413 163H198.59C197.157 163 196.003 161.768 196.003 160.276L196 97.7242C196 96.2217 197.153 95 198.587 95H208.41C209.843 95 210.997 96.2321 210.997 97.7242ZM202.114 100.557V122.368C202.114 123.179 202.73 123.825 203.497 123.825C204.267 123.825 204.88 123.176 204.88 122.368V100.557C204.88 99.7459 204.247 99.1 203.497 99.1C202.744 99.1 202.114 99.7494 202.114 100.557ZM203.497 134.697C202.08 134.697 200.927 135.922 200.927 137.404C200.927 138.903 202.07 140.117 203.497 140.117C204.92 140.117 206.074 138.896 206.074 137.404C206.074 135.912 204.913 134.697 203.497 134.697ZM203.497 143.109C202.08 143.109 200.927 144.323 200.927 145.815C200.927 147.307 202.07 148.522 203.497 148.522C204.92 148.522 206.074 147.318 206.074 145.815C206.074 144.313 204.913 143.109 203.497 143.109ZM203.497 151.509C202.08 151.509 200.927 152.735 200.927 154.216C200.927 155.715 202.07 156.93 203.497 156.93C204.92 156.93 206.074 155.708 206.074 154.216C206.074 152.724 204.913 151.509 203.497 151.509ZM116.997 160.276V97.7242C116.997 96.2321 115.843 95 114.41 95H104.587C103.153 95 102 96.2217 102 97.7242L102.003 160.276C102.003 161.768 103.157 163 104.59 163H114.413C115.847 163 117 161.778 117 160.276H116.997ZM108.114 122.368V100.557C108.114 99.7494 108.744 99.1 109.497 99.1C110.247 99.1 110.88 99.7459 110.88 100.557L110.88 122.368C110.88 123.176 110.267 123.825 109.497 123.825C108.73 123.825 108.114 123.179 108.114 122.368ZM106.927 137.404C106.927 135.922 108.08 134.697 109.497 134.697C110.913 134.697 112.073 135.912 112.073 137.404C112.073 138.896 110.92 140.117 109.497 140.117C108.07 140.117 106.927 138.903 106.927 137.404ZM106.927 145.815C106.927 144.323 108.08 143.109 109.497 143.109C110.913 143.109 112.073 144.313 112.073 145.815C112.074 147.318 110.92 148.522 109.497 148.522C108.07 148.522 106.927 147.307 106.927 145.815ZM106.927 154.216C106.927 152.735 108.08 151.509 109.497 151.509C110.913 151.509 112.074 152.724 112.074 154.216C112.074 155.708 110.92 156.93 109.497 156.93C108.07 156.93 106.927 155.715 106.927 154.216ZM163.997 97.7242V160.276H164C164 161.778 162.847 163 161.413 163H151.59C150.157 163 149.003 161.768 149.003 160.276L149 97.7242C149 96.2217 150.153 95 151.587 95H161.41C162.843 95 163.997 96.2321 163.997 97.7242ZM155.114 100.557V122.368C155.114 123.179 155.73 123.825 156.497 123.825C157.267 123.825 157.88 123.176 157.88 122.368V100.557C157.88 99.7459 157.247 99.1 156.497 99.1C155.744 99.1 155.114 99.7494 155.114 100.557ZM156.497 134.697C155.08 134.697 153.927 135.922 153.927 137.404C153.927 138.903 155.07 140.117 156.497 140.117C157.92 140.117 159.074 138.896 159.074 137.404C159.074 135.912 157.913 134.697 156.497 134.697ZM156.497 143.109C155.08 143.109 153.927 144.323 153.927 145.815C153.927 147.307 155.07 148.522 156.497 148.522C157.92 148.522 159.074 147.318 159.074 145.815C159.074 144.313 157.913 143.109 156.497 143.109ZM156.497 151.509C155.08 151.509 153.927 152.735 153.927 154.216C153.927 155.715 155.07 156.93 156.497 156.93C157.92 156.93 159.074 155.708 159.074 154.216C159.074 152.724 157.913 151.509 156.497 151.509Z" fill="url(#paint0_linear_2_105)"/>
<defs>
<linearGradient id="paint0_linear_2_105" x1="66" y1="259" x2="382" y2="-73.5" gradientUnits="userSpaceOnUse">
<stop stop-color="#3F405B"/>
<stop offset="1" stop-color="#C85292"/>
</linearGradient>
</defs>
</svg>
