<?xml version="1.0" encoding="UTF-8"?><svg id="svg1" xmlns="http://www.w3.org/2000/svg" width="161.85" height="27.13" viewBox="0 0 161.85 27.13"><g id="layer1"><g id="g1"><g id="text1" style="isolation:isolate;"><g style="isolation:isolate;"><path d="M1.9,4.06h2.17v8.11h.08c.45-.65.9-1.25,1.32-1.8l5.14-6.32h2.7l-6.09,7.14,6.57,9.69h-2.57l-5.54-8.26-1.6,1.85v6.42H1.9V4.06Z" style="fill:#000; stroke-width:0px;"/><path d="M16.57,15.25c.05,2.97,1.95,4.19,4.14,4.19,1.57,0,2.52-.28,3.35-.62l.37,1.57c-.77.35-2.1.75-4.02.75-3.72,0-5.94-2.45-5.94-6.09s2.15-6.52,5.67-6.52c3.94,0,4.99,3.47,4.99,5.69,0,.45-.05.8-.07,1.02h-8.49ZM23.01,13.68c.03-1.4-.57-3.57-3.05-3.57-2.22,0-3.2,2.05-3.37,3.57h6.42Z" style="fill:#000; stroke-width:0px;"/><path d="M27.85,12.58c0-1.42-.02-2.65-.1-3.77h1.92l.08,2.37h.1c.55-1.62,1.87-2.65,3.35-2.65.25,0,.42.02.62.07v2.07c-.22-.05-.45-.08-.75-.08-1.55,0-2.65,1.17-2.95,2.82-.05.3-.1.65-.1,1.02v6.44h-2.17v-8.31Z" style="fill:#000; stroke-width:0px;"/><path d="M36.11,12.08c0-1.25-.02-2.27-.1-3.27h1.95l.12,2h.05c.6-1.15,2-2.27,3.99-2.27,1.67,0,4.27,1,4.27,5.14v7.21h-2.2v-6.96c0-1.95-.72-3.57-2.8-3.57-1.45,0-2.57,1.02-2.95,2.25-.1.28-.15.65-.15,1.02v7.26h-2.2v-8.81Z" style="fill:#000; stroke-width:0px;"/><path d="M51.19,15.25c.05,2.97,1.95,4.19,4.14,4.19,1.57,0,2.52-.28,3.35-.62l.37,1.57c-.77.35-2.1.75-4.02.75-3.72,0-5.94-2.45-5.94-6.09s2.15-6.52,5.67-6.52c3.94,0,4.99,3.47,4.99,5.69,0,.45-.05.8-.07,1.02h-8.49ZM57.63,13.68c.03-1.4-.57-3.57-3.05-3.57-2.22,0-3.2,2.05-3.37,3.57h6.42Z" style="fill:#000; stroke-width:0px;"/><path d="M62.47,3.17h2.2v17.72h-2.2V3.17Z" style="fill:#000; stroke-width:0px;"/><path d="M87.9,13.5c-.12-2.35-.28-5.17-.25-7.26h-.08c-.57,1.97-1.27,4.07-2.12,6.39l-2.97,8.16h-1.65l-2.72-8.01c-.8-2.37-1.47-4.54-1.95-6.54h-.05c-.05,2.1-.17,4.92-.32,7.44l-.45,7.21h-2.07l1.17-16.83h2.77l2.87,8.14c.7,2.07,1.27,3.92,1.7,5.67h.07c.42-1.7,1.02-3.54,1.77-5.67l3-8.14h2.77l1.05,16.83h-2.12l-.42-7.39Z" style="fill:#000; stroke-width:0px;"/><path d="M104.8,14.75c0,4.47-3.1,6.42-6.02,6.42-3.27,0-5.79-2.4-5.79-6.22,0-4.04,2.65-6.42,5.99-6.42s5.82,2.52,5.82,6.22ZM95.21,14.87c0,2.65,1.52,4.64,3.67,4.64s3.67-1.97,3.67-4.69c0-2.05-1.02-4.64-3.62-4.64s-3.72,2.4-3.72,4.69Z" style="fill:#000; stroke-width:0px;"/><path d="M118,3.17v14.6c0,1.07.03,2.3.1,3.12h-1.97l-.1-2.1h-.05c-.67,1.35-2.15,2.37-4.12,2.37-2.92,0-5.17-2.47-5.17-6.14-.02-4.02,2.47-6.49,5.42-6.49,1.85,0,3.1.87,3.64,1.85h.05V3.17h2.2ZM115.8,13.73c0-.27-.02-.65-.1-.92-.32-1.4-1.52-2.55-3.17-2.55-2.27,0-3.62,2-3.62,4.67,0,2.45,1.2,4.47,3.57,4.47,1.47,0,2.82-.97,3.22-2.62.08-.3.1-.6.1-.95v-2.1Z" style="fill:#000; stroke-width:0px;"/><path d="M131.75,17.59c0,1.25.02,2.35.1,3.29h-1.95l-.12-1.97h-.05c-.57.97-1.85,2.25-3.99,2.25-1.9,0-4.17-1.05-4.17-5.29v-7.06h2.2v6.69c0,2.3.7,3.84,2.7,3.84,1.47,0,2.5-1.02,2.9-2,.12-.32.2-.72.2-1.12v-7.41h2.2v8.79Z" style="fill:#000; stroke-width:0px;"/><path d="M135.39,3.17h2.2v17.72h-2.2V3.17Z" style="fill:#000; stroke-width:0px;"/><path d="M142.51,15.25c.05,2.97,1.95,4.19,4.14,4.19,1.57,0,2.52-.28,3.34-.62l.38,1.57c-.77.35-2.1.75-4.02.75-3.72,0-5.94-2.45-5.94-6.09s2.15-6.52,5.67-6.52c3.94,0,4.99,3.47,4.99,5.69,0,.45-.05.8-.07,1.02h-8.49ZM148.95,13.68c.02-1.4-.57-3.57-3.05-3.57-2.22,0-3.2,2.05-3.37,3.57h6.42Z" style="fill:#000; stroke-width:0px;"/><path d="M153.49,18.64c.65.42,1.8.87,2.9.87,1.6,0,2.35-.8,2.35-1.8,0-1.05-.62-1.62-2.25-2.22-2.17-.77-3.2-1.97-3.2-3.42,0-1.95,1.57-3.54,4.17-3.54,1.22,0,2.3.35,2.97.75l-.55,1.6c-.47-.3-1.35-.7-2.47-.7-1.3,0-2.02.75-2.02,1.65,0,1,.72,1.45,2.3,2.05,2.1.8,3.17,1.85,3.17,3.64,0,2.12-1.65,3.62-4.52,3.62-1.32,0-2.55-.32-3.4-.82l.55-1.67Z" style="fill:#000; stroke-width:0px;"/></g></g></g></g></svg>