<?xml version="1.0" encoding="UTF-8" standalone="no"?>
<!-- Created with Inkscape (http://www.inkscape.org/) -->

<svg
   width="474.99686"
   height="236.13"
   viewBox="0 0 125.67625 62.476063"
   version="1.1"
   id="svg1"
   xml:space="preserve"
   inkscape:version="1.3.2 (091e20ef0f, 2023-11-25)"
   sodipodi:docname="logo-dark.svg"
   xmlns:inkscape="http://www.inkscape.org/namespaces/inkscape"
   xmlns:sodipodi="http://sodipodi.sourceforge.net/DTD/sodipodi-0.dtd"
   xmlns="http://www.w3.org/2000/svg"
   xmlns:svg="http://www.w3.org/2000/svg"><sodipodi:namedview
     id="namedview1"
     pagecolor="#ffffff"
     bordercolor="#111111"
     borderopacity="1"
     inkscape:showpageshadow="0"
     inkscape:pageopacity="0"
     inkscape:pagecheckerboard="1"
     inkscape:deskcolor="#d1d1d1"
     inkscape:document-units="mm"
     inkscape:zoom="2.9354654"
     inkscape:cx="233.52345"
     inkscape:cy="150.06138"
     inkscape:window-width="2560"
     inkscape:window-height="1371"
     inkscape:window-x="0"
     inkscape:window-y="0"
     inkscape:window-maximized="1"
     inkscape:current-layer="layer1" /><defs
     id="defs1"><filter
       style="color-interpolation-filters:sRGB"
       inkscape:label="Drop Shadow"
       id="filter13"
       x="-0.15288872"
       y="-0.17829062"
       width="1.3057774"
       height="1.3565812"><feFlood
         result="flood"
         in="SourceGraphic"
         flood-opacity="0.729412"
         flood-color="rgb(0,0,0)"
         id="feFlood12" /><feGaussianBlur
         result="blur"
         in="SourceGraphic"
         stdDeviation="3.000000"
         id="feGaussianBlur12" /><feOffset
         result="offset"
         in="blur"
         dx="0.000000"
         dy="0.000000"
         id="feOffset12" /><feComposite
         result="comp1"
         operator="in"
         in="flood"
         in2="offset"
         id="feComposite12" /><feComposite
         result="comp2"
         operator="over"
         in="SourceGraphic"
         in2="comp1"
         id="feComposite13" /></filter><filter
       style="color-interpolation-filters:sRGB"
       inkscape:label="Drop Shadow"
       id="filter20"
       x="-0.17280456"
       y="-0.27922076"
       width="1.3454201"
       height="1.5584455"><feFlood
         result="flood"
         in="SourceGraphic"
         flood-opacity="0.72999999999999998"
         flood-color="rgb(0,0,0)"
         id="feFlood19" /><feGaussianBlur
         result="blur"
         in="SourceGraphic"
         stdDeviation="3.000000"
         id="feGaussianBlur19" /><feOffset
         result="offset"
         in="blur"
         dx="0.000000"
         dy="0.000000"
         id="feOffset19" /><feComposite
         result="comp1"
         operator="in"
         in="offset"
         in2="flood"
         id="feComposite19" /><feComposite
         result="comp2"
         operator="over"
         in="SourceGraphic"
         in2="comp1"
         id="feComposite20" /></filter><filter
       style="color-interpolation-filters:sRGB"
       inkscape:label="Drop Shadow"
       id="filter46"
       x="-0.051206309"
       y="-0.24923281"
       width="1.1024126"
       height="1.4984657"><feFlood
         result="flood"
         in="SourceGraphic"
         flood-opacity="0.729412"
         flood-color="rgb(0,0,0)"
         id="feFlood45" /><feGaussianBlur
         result="blur"
         in="SourceGraphic"
         stdDeviation="1.400000"
         id="feGaussianBlur45" /><feOffset
         result="offset"
         in="blur"
         dx="0.000000"
         dy="0.000000"
         id="feOffset45" /><feComposite
         result="comp1"
         operator="in"
         in="flood"
         in2="offset"
         id="feComposite45" /><feComposite
         result="comp2"
         operator="over"
         in="SourceGraphic"
         in2="comp1"
         id="feComposite46" /></filter><linearGradient
       id="paint0_linear_2_105"
       x1="66"
       y1="259"
       x2="382"
       y2="-73.5"
       gradientUnits="userSpaceOnUse"><stop
         stop-color="#3F405B"
         id="stop1" /><stop
         offset="1"
         stop-color="#C85292"
         id="stop2" /></linearGradient></defs><g
     inkscape:label="Layer 1"
     inkscape:groupmode="layer"
     id="layer1"
     transform="translate(-47.641338,-22.436951)"><text
       xml:space="preserve"
       style="font-size:6.60347px;font-family:'-apple-system', BlinkMacSystemFont, 'Segoe UI', 'Noto Sans', Helvetica, Arial, sans-serif, 'Apple Color Emoji', 'Segoe UI Emoji';fill:#ffffff;fill-opacity:1;stroke:none;stroke-width:6.94872;paint-order:stroke markers fill"
       x="104.85992"
       y="71.364731"
       id="text1"><tspan
         sodipodi:role="line"
         id="tspan1"
         style="font-style:normal;font-variant:normal;font-weight:500;font-stretch:normal;font-family:'-apple-system', BlinkMacSystemFont, 'Segoe UI', 'Noto Sans', Helvetica, Arial, sans-serif, 'Apple Color Emoji', 'Segoe UI Emoji';fill:#ffffff;fill-opacity:1;stroke:none;stroke-width:6.94872"
         x="104.85992"
         y="71.364731">Silo</tspan></text><text
       xml:space="preserve"
       style="font-size:5.14898px;font-family:'-apple-system', BlinkMacSystemFont, 'Segoe UI', 'Noto Sans', Helvetica, Arial, sans-serif, 'Apple Color Emoji', 'Segoe UI Emoji';fill:#ffffff;fill-opacity:1;stroke:none;stroke-width:5.41818;paint-order:stroke markers fill"
       x="52.527721"
       y="80.502258"
       id="text2"><tspan
         sodipodi:role="line"
         id="tspan2"
         style="font-style:normal;font-variant:normal;font-weight:normal;font-stretch:normal;font-family:'-apple-system', BlinkMacSystemFont, 'Segoe UI', 'Noto Sans', Helvetica, Arial, sans-serif, 'Apple Color Emoji', 'Segoe UI Emoji';fill:#ffffff;fill-opacity:1;stroke:none;stroke-width:5.41818"
         x="52.527721"
         y="80.502258">A Storage Primitive Designed for Live Migration. </tspan></text><g
       style="fill:none"
       id="g4"
       transform="matrix(0.10821848,0,0,0.10821848,93.543272,26.616051)"><path
         fill-rule="evenodd"
         clip-rule="evenodd"
         d="m 273.875,140.85 h -15.65 V 78.25 H 54.775 v 62.6 h -15.65 c -4.3037,0 -7.825,3.521 -7.825,7.825 V 250.4 c -4.3037,0 -7.825,3.521 -7.825,7.825 v 15.65 H 7.825 C 3.52125,273.875 0,277.396 0,281.7 v 23.475 C 0,309.479 3.52125,313 7.825,313 h 297.35 c 4.304,0 7.825,-3.521 7.825,-7.825 V 281.7 c 0,-4.304 -3.521,-7.825 -7.825,-7.825 h -15.65 v -15.65 c 0,-4.304 -3.521,-7.825 -7.825,-7.825 V 148.675 c 0,-4.304 -3.521,-7.825 -7.825,-7.825 z M 70.425,250.4 v -48.515 l 15.65,9.781 v 62.209 H 78.25 v -15.65 c 0,-4.304 -3.5212,-7.825 -7.825,-7.825 z m 125.2,-19.171 15.65,-9.781 v 52.427 h -109.55 v -52.427 l 15.65,9.781 V 250.4 c 0,4.304 3.521,7.825 7.825,7.825 h 62.6 c 4.304,0 7.825,-3.521 7.825,-7.825 z m 31.3,-19.563 15.65,-9.781 V 250.4 c -4.304,0 -7.825,3.521 -7.825,7.825 v 15.65 h -7.825 z m -156.5,-16.041 v -15.65 h 172.15 v 15.65 z M 252.588,62.6 H 60.3245 60.2491 L 117.3,26.9963 V 7.825 C 117.3,3.52125 120.821,0 125.125,0 h 62.6 c 4.303,0 7.825,3.52125 7.825,7.825 l -0.013,19.1713 z M 210.997,97.7242 V 160.276 H 211 c 0,1.502 -1.153,2.724 -2.587,2.724 h -9.823 c -1.433,0 -2.587,-1.232 -2.587,-2.724 L 196,97.7242 C 196,96.2217 197.153,95 198.587,95 h 9.823 c 1.433,0 2.587,1.2321 2.587,2.7242 z m -8.883,2.8328 v 21.811 c 0,0.811 0.616,1.457 1.383,1.457 0.77,0 1.383,-0.649 1.383,-1.457 v -21.811 c 0,-0.8111 -0.633,-1.457 -1.383,-1.457 -0.753,0 -1.383,0.6494 -1.383,1.457 z m 1.383,34.14 c -1.417,0 -2.57,1.225 -2.57,2.707 0,1.499 1.143,2.713 2.57,2.713 1.423,0 2.577,-1.221 2.577,-2.713 0,-1.492 -1.161,-2.707 -2.577,-2.707 z m 0,8.412 c -1.417,0 -2.57,1.214 -2.57,2.706 0,1.492 1.143,2.707 2.57,2.707 1.423,0 2.577,-1.204 2.577,-2.707 0,-1.502 -1.161,-2.706 -2.577,-2.706 z m 0,8.4 c -1.417,0 -2.57,1.226 -2.57,2.707 0,1.499 1.143,2.714 2.57,2.714 1.423,0 2.577,-1.222 2.577,-2.714 0,-1.492 -1.161,-2.707 -2.577,-2.707 z m -86.5,8.767 V 97.7242 C 116.997,96.2321 115.843,95 114.41,95 h -9.823 C 103.153,95 102,96.2217 102,97.7242 l 0.003,62.5518 c 0,1.492 1.154,2.724 2.587,2.724 h 9.823 c 1.434,0 2.587,-1.222 2.587,-2.724 z m -8.883,-37.908 v -21.811 c 0,-0.8076 0.63,-1.457 1.383,-1.457 0.75,0 1.383,0.6459 1.383,1.457 v 21.811 c 0,0.808 -0.613,1.457 -1.383,1.457 -0.767,0 -1.383,-0.646 -1.383,-1.457 z m -1.187,15.036 c 0,-1.482 1.153,-2.707 2.57,-2.707 1.416,0 2.576,1.215 2.576,2.707 0,1.492 -1.153,2.713 -2.576,2.713 -1.427,0 -2.57,-1.214 -2.57,-2.713 z m 0,8.411 c 0,-1.492 1.153,-2.706 2.57,-2.706 1.416,0 2.576,1.204 2.576,2.706 0.001,1.503 -1.153,2.707 -2.576,2.707 -1.427,0 -2.57,-1.215 -2.57,-2.707 z m 0,8.401 c 0,-1.481 1.153,-2.707 2.57,-2.707 1.416,0 2.577,1.215 2.577,2.707 0,1.492 -1.154,2.714 -2.577,2.714 -1.427,0 -2.57,-1.215 -2.57,-2.714 z m 57.07,-56.4918 V 160.276 H 164 c 0,1.502 -1.153,2.724 -2.587,2.724 h -9.823 c -1.433,0 -2.587,-1.232 -2.587,-2.724 L 149,97.7242 C 149,96.2217 150.153,95 151.587,95 h 9.823 c 1.433,0 2.587,1.2321 2.587,2.7242 z m -8.883,2.8328 v 21.811 c 0,0.811 0.616,1.457 1.383,1.457 0.77,0 1.383,-0.649 1.383,-1.457 v -21.811 c 0,-0.8111 -0.633,-1.457 -1.383,-1.457 -0.753,0 -1.383,0.6494 -1.383,1.457 z m 1.383,34.14 c -1.417,0 -2.57,1.225 -2.57,2.707 0,1.499 1.143,2.713 2.57,2.713 1.423,0 2.577,-1.221 2.577,-2.713 0,-1.492 -1.161,-2.707 -2.577,-2.707 z m 0,8.412 c -1.417,0 -2.57,1.214 -2.57,2.706 0,1.492 1.143,2.707 2.57,2.707 1.423,0 2.577,-1.204 2.577,-2.707 0,-1.502 -1.161,-2.706 -2.577,-2.706 z m 0,8.4 c -1.417,0 -2.57,1.226 -2.57,2.707 0,1.499 1.143,2.714 2.57,2.714 1.423,0 2.577,-1.222 2.577,-2.714 0,-1.492 -1.161,-2.707 -2.577,-2.707 z"
         fill="url(#paint0_linear_2_105)"
         id="path1-3"
         style="fill:url(#paint0_linear_2_105)" /></g></g></svg>
